<?xml version="1.0" encoding="iso-8859-1"?>
<!-- Uploaded to: SVG Repo, www.svgrepo.com, Generator: SVG Repo Mixer Tools -->
<svg fill="#000000" height="800px" width="800px" version="1.1" id="Layer_1" xmlns="http://www.w3.org/2000/svg" xmlns:xlink="http://www.w3.org/1999/xlink" 
	 viewBox="0 0 490.667 490.667" xml:space="preserve">
<g>
	<g>
		<g>
			<path d="M480,0H10.667C4.776,0,0,4.776,0,10.667V480c0,5.891,4.776,10.667,10.667,10.667H480c5.891,0,10.667-4.776,10.667-10.667
				V10.667C490.667,4.776,485.891,0,480,0z M469.333,469.333h-448v-448h448V469.333z"/>
			<path d="M124.875,316.875l120.459-120.459l120.459,120.459c4.237,4.093,10.99,3.976,15.083-0.261
				c3.993-4.134,3.993-10.688,0-14.821l-128-128c-4.165-4.164-10.917-4.164-15.083,0l-128,128
				c-4.093,4.237-3.976,10.99,0.262,15.083C114.187,320.867,120.741,320.867,124.875,316.875z"/>
		</g>
	</g>
</g>
</svg>